<?xml version="1.0" encoding="UTF-8"?>
<svg fill="none" data-ember-extension="1" version="1.1" viewBox="0 0 25.161 31.452" xmlns="http://www.w3.org/2000/svg"><g clip-rule="evenodd" fill-rule="evenodd"><path d="m18.921 0.64433c-0.9923-0.8648-2.4808-0.85454-3.4703 0.003462-0.7954 0.68986-1.8144 1.0697-2.8698 1.0697-1.0551 0-2.0741-0.37992-2.8692-1.0697-0.99018-0.85871-2.479-0.86761-3.4711-0.002926l-0.00498 0.004344-0.00493 0.004409c-3.0066 2.6918-3.349 5.8505-3.258 7.7054l-1.2228 0.90389c-1.0965 0.79672-1.7494 2.0766-1.7494 3.4288v1.6296c0 5.2334 2.0538 10.409 5.4725 13.491 2.5974 2.3417 4.8818 3.635 7.1076 3.6389h0.0035c2.2237-0.0039 4.5083-1.2973 7.1052-3.639 3.4191-3.0826 5.4725-8.258 5.4725-13.491v-1.6296c0-1.3509-0.6516-2.6313-1.7443-3.425l-1.2259-0.9062c0.0862-1.9184-0.3237-5.0935-3.2628-7.7093l-0.0038-0.003436z" fill="#fff"/><path d="m12.008 7.1863c-0.1332-0.1363-0.3104-0.31766-0.5704-0.55476-1.7579-1.6033-4.0813-2.0466-5.9427-0.78958 0.38607-1.3448 1.1534-2.5672 2.2326-3.5078 0.14037-0.1223 0.3559-0.11935 0.50165 0.00697 1.2105 1.046 2.7173 1.6224 4.3518 1.6224s3.1454-0.57636 4.3518-1.6224c0.1455-0.12632 0.3613-0.12927 0.5017-0.00697 1.0793 0.94058 1.8465 2.163 2.2326 3.5078-1.8614-1.2571-4.1848-0.81373-5.9427 0.78958-0.26 0.2371-0.4372 0.41846-0.5704 0.55476-0.2631 0.26934-0.3544 0.36276-0.573 0.36276s-0.3099-0.09341-0.573-0.36276zm-5.3271 6.9543c1.3648 1.2755 3.1004 2.0573 4.9774 2.2518 0.7864 1.3332 1.2193 3.0113 1.2193 4.7479 0 2.6778-1.1156 5.2372-3.0667 7.0747-0.84246-0.4994-1.7655-1.2021-2.779-2.1161-1.6828-1.5173-2.9951-3.6704-3.8025-6.1161z" fill="#32466e"/><path d="m3.1251 11.125 1.1684-0.8636c0.30336 1.0438 0.80124 2.0206 1.4718 2.881l-3.0139 5.1012c-0.28019-1.2691-0.42917-2.5903-0.42917-3.9225v-1.6296c0-0.6257 0.29069-1.1953 0.80285-1.5665zm17.76-0.8507 1.1558 0.8545c0.507 0.3674 0.798 0.9368 0.798 1.5625v1.6296c0 3.3579-0.943 6.6461-2.5624 9.2002 0.4814-1.3604 0.7552-2.7907 0.7552-4.1507 0-2.1456-0.6148-4.2116-1.7798-5.9986 0.7713-0.9151 1.3314-2.0432 1.6332-3.0975z" fill="#fff"/><path d="m20.276 23.521c1.6197-2.5544 2.5627-5.8423 2.5627-9.2002v-1.6295c0-0.6258-0.291-1.1951-0.798-1.5626l-1.1558-0.8545c-0.3018 1.0543-0.8621 2.1824-1.6332 3.0975 1.1649 1.787 1.7797 3.853 1.7797 5.9983 0 1.3601-0.2739 2.7904-0.7554 4.151zm-7.6947 5.618c0.951-0.0014 2.0505-0.4235 3.3237-1.2759 2.1915-1.7923 3.8295-5.4072 3.8295-8.4931 0-1.7951-0.4882-3.5266-1.4142-5.0451-1.4279 1.2498-3.234 1.9809-5.1794 2.0981 0.6695 1.3968 1.0329 3.0371 1.0329 4.7171 0 2.8749-1.135 5.6285-3.1346 7.6803 0.5525 0.211 1.066 0.318 1.5421 0.3186zm-5.5505-3.0404c1.0138 0.9138 1.9365 1.6165 2.7793 2.1162 1.9511-1.8375 3.0665-4.3969 3.0665-7.0747 0-1.7368-0.4327-3.415-1.2191-4.7479-1.877-0.1945-3.6129-0.9763-4.9774-2.2519l-3.4515 5.842c0.80717 2.446 2.1198 4.5991 3.8022 6.1163zm-4.7091-13.407v1.6295c0 1.3325 0.14898 2.6536 0.42917 3.9225l3.0139-5.1012c-0.6703-0.8604-1.1682-1.8372-1.4715-2.881l-1.1684 0.8636c-0.51243 0.3712-0.80312 0.9408-0.80312 1.5666zm11.395-4.1984c-0.4082 0.49416-0.7277 0.88094-1.1373 0.88094-0.4095 0-0.7288-0.38665-1.1368-0.88067-0.1683-0.20376-0.3516-0.42577-0.5626-0.64647-1.2999-1.3791-2.9617-1.7243-4.17-1.2458-1.0321 0.40874-1.5276 1.3523-1.3904 2.5552 0.25541 1.4982 0.95049 2.8604 2.0236 3.9235 1.3713 1.359 3.212 2.1073 5.2363 2.1073 2.0247 0 3.8653-0.7483 5.2366-2.1073 1.0728-1.0631 1.7679-2.4253 2.0236-3.9235 0.1369-1.2029-0.3583-2.1464-1.3907-2.5552-1.2078-0.47847-2.8695-0.1333-4.1697 1.2458-0.2109 0.2206-0.3942 0.44252-0.5625 0.6462zm3.2146-6.1521c-1.2062 1.046-2.7173 1.6224-4.3519 1.6224-1.6345 0-3.141-0.57637-4.3515-1.6224-0.14575-0.12633-0.36128-0.12928-0.50165-0.00698-1.0793 0.94059-1.8466 2.163-2.2326 3.5078 1.8614-1.2571 4.1845-0.81345 5.9427 0.78959 0.2596 0.23685 0.4367 0.41807 0.5698 0.55432 0.2635 0.26968 0.3549 0.36319 0.5736 0.36319 0.2186 0 0.3099-0.09341 0.573-0.36275 0.1332-0.13631 0.3104-0.31766 0.5704-0.55476 1.7579-1.603 4.0811-2.0466 5.9427-0.78959-0.386-1.3448-1.1536-2.5672-2.2326-3.5078-0.1404-0.1223-0.3562-0.11935-0.5019 0.00698zm4.2252 6.4905 1.669 1.2337c0.8363 0.6059 1.3385 1.5891 1.3385 2.6263v1.6295c0 5.0068-1.9713 9.8948-5.145 12.756-2.5557 2.3044-4.6016 3.3791-6.4382 3.3823-1.8388-0.0032-3.8847-1.0779-6.4406-3.3823-3.1734-2.8614-5.145-7.7494-5.145-12.756v-1.6295c0-1.0372 0.50246-2.0204 1.3436-2.63l1.6671-1.2324c-0.16192-1.5582-0.11827-4.7456 2.8895-7.4383 0.61265-0.53399 1.5416-0.53211 2.1604 0.00456 0.97662 0.84725 2.228 1.3136 3.5236 1.3136 1.2959 0 2.5473-0.4664 3.5242-1.3136 0.6186-0.5364 1.5473-0.53882 2.1597-0.0051 2.9236 2.6021 3.0635 5.8068 2.8932 7.4412zm-13.791 0.73695c0-0.71663 0.45585-1.2997 1.0162-1.2997s1.016 0.58307 1.016 1.2997c0 0.71695-0.45558 1.2998-1.016 1.2998s-1.0162-0.5828-1.0162-1.2998zm5.2108 0.85505c0.482 0 0.8282 0.3462 0.8618 0.8615 0.0051 0.0767 0.0076 0.1553 0.0076 0.2336 0 0.8207-0.166 1.4898-0.555 2.2376l-0.0148 0.0287c-0.0563 0.111-0.1415 0.2784-0.2996 0.2784-0.1574 0-0.2425-0.1666-0.2991-0.2774l-5e-4 -1e-3 -0.0146-0.0287c-0.3893-0.7478-0.555-1.4169-0.555-2.2376 0-0.0783 0.0025-0.1569 0.0076-0.2336 0.0334-0.5153 0.3799-0.8615 0.8616-0.8615zm5.5091-1.0579c-0.1339-0.42402-0.5272-0.75096-0.979-0.81318-0.631-0.0869-1.2722 0.28992-1.7159 1.0074-0.1334 0.21483-0.0728 0.39694 0.0285 0.49536 0.0693 0.0676 0.1617 0.1046 0.2665 0.107 0.0024 3e-4 0.0046 3e-4 0.0067 3e-4 0.1241 0 0.2391-0.0813 0.3236-0.1411l8e-4 -5e-4 0.0383-0.02657c0.4574-0.30843 0.8427-0.33069 1.2498-0.07295 0.2252 0.14272 0.458 0.15662 0.6226 0.03701 0.1702-0.12418 0.2325-0.35698 0.1581-0.59273z" fill="#081736"/></g><script/></svg>
